<?xml version="1.0" encoding="UTF-8" standalone="no"?>
<!DOCTYPE svg PUBLIC "-//W3C//DTD SVG 1.1//EN" "http://www.w3.org/Graphics/SVG/1.1/DTD/svg11.dtd">
<svg version="1.1" xmlns="http://www.w3.org/2000/svg" xmlns:xlink="http://www.w3.org/1999/xlink" preserveAspectRatio="xMidYMid meet" viewBox="203.70690873050088 137.1209476154398 199.7226064404023 199.34899835258736" width="195.72" height="195.35"><defs><path d="M258.02 183.8L258.07 183.8L258.12 183.81L258.17 183.81L258.23 183.81L258.28 183.82L258.33 183.82L258.38 183.82L258.44 183.83L258.49 183.83L258.54 183.84L258.59 183.85L258.65 183.85L258.7 183.86L258.75 183.87L258.8 183.87L258.86 183.88L258.91 183.89L258.96 183.9L259.01 183.91L259.06 183.92L259.12 183.93L259.17 183.94L259.22 183.95L259.27 183.96L259.32 183.97L259.37 183.98L259.42 184L259.48 184.01L259.53 184.02L259.58 184.04L259.63 184.05L259.68 184.06L259.73 184.08L259.78 184.09L259.83 184.11L259.88 184.12L259.93 184.14L259.98 184.16L395.6 228.67L396.02 228.82L396.42 228.99L396.8 229.19L397.17 229.4L397.51 229.63L397.84 229.87L398.14 230.13L398.43 230.41L398.7 230.7L398.95 231.01L399.18 231.32L399.4 231.65L399.59 231.99L399.76 232.33L399.92 232.69L400.05 233.05L400.16 233.42L400.26 233.79L400.33 234.17L400.38 234.55L400.42 234.93L400.43 235.32L400.42 235.7L400.39 236.08L400.34 236.47L400.27 236.85L400.18 237.22L400.07 237.6L399.94 237.96L399.78 238.32L399.61 238.67L399.41 239.02L399.19 239.35L398.95 239.68L398.69 239.99L398.41 240.29L398.1 240.58L397.77 240.85L397.42 241.11L397.05 241.35L363.5 261.68L392.79 290.97L392.99 291.18L393.18 291.39L393.36 291.61L393.53 291.84L393.69 292.07L393.84 292.31L393.98 292.55L394.11 292.79L394.23 293.04L394.33 293.29L394.43 293.55L394.52 293.81L394.6 294.07L394.66 294.33L394.72 294.6L394.77 294.86L394.8 295.13L394.83 295.4L394.84 295.67L394.85 295.94L394.84 296.21L394.83 296.48L394.8 296.74L394.77 297.01L394.72 297.28L394.66 297.54L394.6 297.81L394.52 298.07L394.43 298.33L394.33 298.58L394.23 298.83L394.11 299.08L393.98 299.33L393.84 299.57L393.69 299.8L393.53 300.03L393.36 300.26L393.18 300.48L392.99 300.7L392.79 300.91L367.89 325.79L367.68 325.99L367.47 326.18L367.25 326.36L367.02 326.53L366.79 326.69L366.55 326.84L366.31 326.98L366.07 327.11L365.82 327.22L365.57 327.33L365.31 327.43L365.05 327.52L364.79 327.6L364.53 327.66L364.27 327.72L364 327.76L363.73 327.8L363.46 327.83L363.19 327.84L362.92 327.85L362.65 327.84L362.39 327.83L362.12 327.8L361.85 327.76L361.58 327.72L361.32 327.66L361.05 327.6L360.79 327.52L360.54 327.43L360.28 327.33L360.03 327.22L359.78 327.11L359.53 326.98L359.29 326.84L359.06 326.69L358.83 326.53L358.6 326.36L358.38 326.18L358.16 325.99L357.96 325.79L328.67 296.5L308.31 330.09L308.07 330.46L307.81 330.81L307.54 331.14L307.25 331.45L306.95 331.73L306.64 331.99L306.31 332.23L305.98 332.45L305.63 332.65L305.28 332.82L304.92 332.98L304.55 333.11L304.18 333.22L303.81 333.32L303.43 333.38L303.04 333.43L302.66 333.46L302.28 333.47L301.89 333.46L301.51 333.42L301.13 333.37L300.75 333.3L300.38 333.2L300.01 333.09L299.65 332.96L299.29 332.8L298.95 332.63L298.61 332.44L298.28 332.22L297.97 331.99L297.66 331.74L297.37 331.47L297.09 331.19L296.83 330.88L296.59 330.55L296.36 330.21L296.15 329.84L295.95 329.46L295.78 329.06L295.63 328.64L251.12 193.02L251.01 192.68L250.93 192.33L250.86 191.99L250.81 191.65L250.78 191.3L250.76 190.97L250.76 190.63L250.78 190.29L250.81 189.96L250.86 189.63L250.93 189.31L251 188.99L251.1 188.68L251.21 188.37L251.33 188.07L251.46 187.77L251.61 187.48L251.77 187.2L251.95 186.93L252.13 186.66L252.33 186.4L252.54 186.16L252.76 185.92L253 185.69L253.24 185.47L253.49 185.27L253.75 185.07L254.03 184.89L254.31 184.72L254.6 184.56L254.9 184.42L255.2 184.29L255.52 184.17L255.84 184.07L256.17 183.98L256.5 183.91L256.85 183.86L257.2 183.82L257.55 183.8L257.91 183.8L257.96 183.8L258.02 183.8ZM244.01 217.58L244.28 217.62L244.54 217.68L244.8 217.75L245.06 217.84L245.31 217.94L245.55 218.06L245.79 218.19L246.02 218.33L246.25 218.48L246.46 218.65L246.67 218.83L246.87 219.02L247.22 219.43L247.53 219.86L247.78 220.31L247.98 220.79L248.13 221.28L248.23 221.78L248.27 222.28L248.27 222.79L248.21 223.29L248.1 223.79L247.94 224.27L247.73 224.74L247.46 225.19L247.15 225.62L246.78 226.01L230.26 242.54L230.25 242.55L230.23 242.57L230.22 242.58L230.2 242.6L230.18 242.62L230.16 242.64L230.15 242.65L230.13 242.67L229.72 243.02L229.28 243.32L228.83 243.57L228.35 243.77L227.86 243.91L227.36 244.01L226.86 244.05L226.35 244.04L225.85 243.98L225.35 243.86L224.87 243.7L224.4 243.48L223.95 243.22L223.53 242.9L223.13 242.53L222.78 242.12L222.48 241.69L222.23 241.23L222.04 240.75L221.89 240.26L221.8 239.76L221.76 239.26L221.77 238.75L221.83 238.25L221.94 237.76L222.11 237.27L222.32 236.8L222.59 236.36L222.9 235.93L223.27 235.54L239.78 219.03L239.97 218.85L240.16 218.68L240.36 218.52L240.57 218.37L240.78 218.24L241 218.11L241.23 218L241.46 217.9L241.69 217.81L241.93 217.73L242.18 217.67L242.43 217.61L242.68 217.57L242.93 217.55L243.19 217.53L243.46 217.53L243.74 217.55L244.01 217.58ZM235.79 194.34L235.81 194.34L235.84 194.34L235.86 194.34L235.89 194.34L235.92 194.34L235.94 194.34L236.45 194.39L236.93 194.48L237.4 194.63L237.85 194.81L238.27 195.04L238.67 195.3L239.04 195.6L239.37 195.94L239.68 196.3L239.95 196.69L240.18 197.11L240.37 197.55L240.51 198.01L240.62 198.49L240.67 198.98L240.67 199.49L240.63 200L240.53 200.48L240.39 200.95L240.2 201.4L239.98 201.82L239.71 202.22L239.41 202.59L239.08 202.92L238.71 203.23L238.32 203.5L237.9 203.73L237.46 203.92L237 204.06L236.52 204.17L236.03 204.22L235.52 204.22L209.86 204.22L209.83 204.22L209.81 204.23L209.78 204.23L209.75 204.23L209.73 204.23L209.7 204.23L209.67 204.23L209.65 204.23L209.62 204.23L209.6 204.23L209.57 204.23L209.54 204.23L209.52 204.23L209.49 204.23L209.47 204.22L209.44 204.22L208.93 204.18L208.45 204.08L207.98 203.94L207.53 203.75L207.11 203.53L206.71 203.26L206.34 202.96L206.01 202.63L205.7 202.26L205.43 201.87L205.2 201.45L205.01 201.01L204.87 200.55L204.77 200.07L204.71 199.58L204.71 199.07L204.74 198.73L204.81 198.4L204.92 198.07L205.07 197.75L205.26 197.44L205.49 197.13L205.75 196.82L206.05 196.53L206.39 196.23L206.77 195.95L207.19 195.66L207.65 195.39L208.14 195.12L208.68 194.85L209.25 194.59L209.86 194.34L235.52 194.34L235.55 194.34L235.58 194.34L235.6 194.34L235.63 194.34L235.65 194.34L235.68 194.34L235.71 194.34L235.73 194.34L235.76 194.34L235.79 194.34ZM306.47 155.03L306.74 155.08L307 155.14L307.26 155.21L307.52 155.3L307.77 155.4L308.01 155.51L308.25 155.64L308.48 155.78L308.71 155.94L308.92 156.11L309.13 156.28L309.33 156.48L309.68 156.88L309.99 157.32L310.24 157.77L310.44 158.25L310.59 158.73L310.69 159.23L310.73 159.74L310.73 160.24L310.67 160.75L310.56 161.24L310.4 161.73L310.19 162.2L309.92 162.65L309.61 163.07L309.24 163.47L292.79 179.93L292.78 179.94L292.76 179.95L292.75 179.97L292.73 179.98L292.71 180L292.7 180.02L292.68 180.03L292.67 180.05L292.26 180.4L291.82 180.7L291.37 180.95L290.89 181.15L290.4 181.3L289.9 181.39L289.4 181.44L288.89 181.43L288.39 181.37L287.89 181.26L287.41 181.1L286.94 180.88L286.49 180.62L286.07 180.3L285.67 179.93L285.32 179.53L285.02 179.09L284.77 178.63L284.57 178.16L284.42 177.67L284.33 177.17L284.28 176.67L284.29 176.16L284.35 175.66L284.46 175.16L284.63 174.68L284.84 174.21L285.1 173.76L285.42 173.34L285.79 172.94L302.24 156.48L302.43 156.3L302.62 156.14L302.82 155.98L303.03 155.83L303.24 155.69L303.46 155.57L303.69 155.46L303.92 155.35L304.15 155.26L304.39 155.19L304.64 155.12L304.89 155.07L305.14 155.03L305.39 155L305.65 154.99L305.92 154.99L306.2 155L306.47 155.03ZM226.83 155.02L227.11 155.06L227.39 155.11L227.66 155.19L227.93 155.27L228.19 155.37L228.44 155.49L228.69 155.62L228.94 155.77L229.17 155.93L229.39 156.1L229.61 156.28L229.81 156.48L244.02 170.69L244.03 170.7L244.04 170.71L244.05 170.72L244.06 170.73L244.07 170.74L244.08 170.75L244.09 170.76L244.1 170.77L244.11 170.78L244.12 170.79L244.13 170.8L244.14 170.81L244.15 170.82L244.16 170.83L244.54 171.27L244.85 171.74L245.11 172.23L245.3 172.75L245.44 173.28L245.52 173.81L245.53 174.36L245.49 174.9L245.39 175.43L245.24 175.95L245.02 176.46L244.74 176.94L244.41 177.4L244.01 177.82L243.57 178.2L243.1 178.51L242.61 178.77L242.1 178.96L241.57 179.1L241.03 179.18L240.49 179.2L239.95 179.16L239.41 179.06L238.89 178.9L238.38 178.68L237.9 178.4L237.44 178.07L237.02 177.68L222.81 163.47L222.62 163.27L222.43 163.05L222.26 162.83L222.1 162.6L221.96 162.36L221.83 162.11L221.72 161.86L221.61 161.6L221.53 161.33L221.46 161.06L221.4 160.79L221.36 160.51L221.33 160.23L221.33 159.94L221.36 159.37L221.45 158.81L221.61 158.28L221.82 157.77L222.09 157.29L222.4 156.85L222.77 156.44L223.17 156.08L223.61 155.76L224.09 155.5L224.59 155.28L225.13 155.12L225.68 155.02L226.26 154.99L226.55 154.99L226.83 155.02ZM266.08 138.12L266.1 138.12L266.68 138.16L267.23 138.27L267.76 138.43L268.27 138.65L268.74 138.93L269.18 139.25L269.58 139.62L269.93 140.02L270.25 140.47L270.51 140.95L270.71 141.46L270.86 142L270.95 142.55L270.98 143.13L270.98 163.09L270.95 163.66L270.85 164.22L270.69 164.76L270.48 165.26L270.21 165.74L269.89 166.18L269.53 166.59L269.13 166.95L268.69 167.27L268.21 167.53L267.7 167.75L267.17 167.91L266.61 168L266.03 168.04L265.46 168L264.9 167.91L264.36 167.75L263.86 167.53L263.38 167.27L262.94 166.95L262.53 166.59L262.17 166.18L261.86 165.74L261.59 165.26L261.37 164.76L261.22 164.22L261.12 163.66L261.08 163.09L261.08 143.13L261.11 142.55L261.2 142L261.35 141.46L261.56 140.95L261.82 140.47L262.13 140.03L262.48 139.62L262.88 139.25L263.32 138.93L263.79 138.66L264.3 138.43L264.83 138.27L265.38 138.16L265.96 138.12L265.97 138.12L265.99 138.12L266.02 138.12L266.06 138.12L266.08 138.12Z" id="b4ynVk8zNK"></path></defs><g><g><use xlink:href="#b4ynVk8zNK" opacity="1" fill="#000000" fill-opacity="1"></use><g><use xlink:href="#b4ynVk8zNK" opacity="1" fill-opacity="0" stroke="#000000" stroke-width="1" stroke-opacity="0"></use></g></g></g></svg>